<?xml version="1.0" encoding="utf-8"?>
<!-- Generator: Adobe Illustrator 17.0.2, SVG Export Plug-In . SVG Version: 6.00 Build 0)  -->
<!DOCTYPE svg PUBLIC "-//W3C//DTD SVG 1.1 Basic//EN" "http://www.w3.org/Graphics/SVG/1.1/DTD/svg11-basic.dtd">
<svg version="1.1" baseProfile="basic" id="Layer_1"
	 xmlns="http://www.w3.org/2000/svg" xmlns:xlink="http://www.w3.org/1999/xlink" x="0px" y="0px" width="60px" height="167.333px"
	 viewBox="0 0 60 167.333" xml:space="preserve">
<rect x="-8.768" y="99.315" fill="none" width="75.768" height="69.352"/>
<text transform="matrix(1 0 0 1 4.3414 116.3745)"><tspan x="0" y="0" fill="#E93340" font-family="'Noteworthy-Light'" font-size="20">BACK </tspan><tspan x="11.7" y="24" fill="#E93340" font-family="'Noteworthy-Light'" font-size="20">TO </tspan><tspan x="5.438" y="48" fill="#E93340" font-family="'Noteworthy-Light'" font-size="20">TOP</tspan></text>
<g>
	<path fill="#E93340" d="M25.111,21.363c-7.615,1.04-4.57-8.07-9.495-10.38c0.011-0.009,1.932-1.574,1.973-1.825
		c0.113-0.682-0.999-2.359-0.416-2.986c0.803-0.863,6.222-1.272,7.557-1.613c2.7-0.69,3.103-1.103,5.036,0.783
		c1.595,1.557,1.546,4.637,4.914,3.184c-0.949,2.603-2.01,5.388-3.081,7.874c-1.032,2.396-2.098,5.628-5.725,4.963"/>
	<path fill="#6D9D31" d="M21.484,21.073c-1.013,1.11-2.51,1.612-4.084,1.527c2.351,0,4.991,0.403,7.08-0.724
		c0.325,6.443-0.534,13.12-0.304,19.428c0.183,5.033,1.823,10.569,1.527,16.425c-0.642,12.686-1.385,26.63-0.725,39.248
		c0.494,0.044,0.91,0.044,1.403,0c1.849-6.082,0.112-12.617,0.448-19.028c0.322-6.14,0-12.099,0-18.322
		c0-6.181,0.136-12.356-1.06-18.025c-0.802-3.8-1.816-15.227,0.298-18.627c-0.065-0.241-0.046-0.474,0.056-0.698
		c1.53,0.068,2.221-0.177,3.377-0.87c0.843,0.17,0.955,0.117,1.581,0.048c-2.965-1.783-6.325,0.224-9.597,0"/>
	<path fill="#6D9D31" d="M26.064,45.884c0.635-2.641,4.007-3.386,6.021-1.957c1.356-4.221,6.09-7.509,10.724-6.765
		c-1.347,4.67-4.543,7.984-9.396,8.732c7.52,0.104,10.79,10.953,8.701,16.756c-4.915-3.006-5.316-8.135-7.559-12.578
		c-1.957-3.877-8.918-0.184-8.492-5.716"/>
	<g>
		<path fill="none" stroke="#981B1E" stroke-width="0.5" d="M24.871,8.381c-0.259-0.071-1.141-0.607-1.146,0.046
			c-0.004,0.417,0.647,0.507,0.909,0.382c0.964-0.463,0.132-1.458-0.719-1.251c-0.848,0.206-1.332,1.255-0.273,1.54
			c0.689,0.185,2.023,0.01,2.363-0.671c0.315-0.629-0.483-1.101-0.953-1.409c-0.651-0.426-1.682-0.237-2.269,0.29
			c-0.318,0.285-1.047,1.252-0.634,1.731c0.267,0.31,1.485,0.372,1.769,0.153"/>
		<path fill="none" stroke="#981B1E" stroke-width="0.5" d="M22.056,9.24c-1.171,0.11-1.942-0.96-1.382-1.918
			c0.567-0.969,1.82-0.659,2.718-0.42"/>
		<path fill="none" stroke="#981B1E" stroke-width="0.5" d="M20.291,7.808c-0.543,2.318,2.415,2.9,4.151,2.636
			c0.714-0.108,1.69-0.174,2.184-0.773c0.435-0.526,0.617-1.682,0.178-2.234c-0.437-0.549-1.572-1.034-2.267-0.726"/>
		<path fill="none" stroke="#981B1E" stroke-width="0.5" d="M20.052,8.19c-0.958-0.206-2.405,0.3-1.658,1.526
			c0.283,0.465,0.816,0.346,1.194,0.655c0.389,0.319,0.455,0.841,0.943,1.078c1.372,0.667,3.113,0.88,4.529,0.649
			c0.859-0.14,1.534,0.03,2.233-0.627c0.164-0.154,0.316-0.303,0.394-0.513"/>
		<path fill="none" stroke="#981B1E" stroke-width="0.5" d="M23.535,10.767c0.589,0.049,1.082,0.334,1.707,0.334
			c0.51,0,1.028,0.026,1.538,0.002c0.62-0.028,1.559-0.15,1.851-0.787c0.302-0.658-0.007-1.496-0.181-2.126
			c-0.227-0.818-0.947-1.047-1.765-1.05"/>
		<path fill="none" stroke="#981B1E" stroke-width="0.5" d="M19.861,10.814c-0.538,0.016-1.167-0.097-1.669-0.295
			c-0.637-0.25-0.807-0.658-1.076-1.149c-0.481-0.876-1.076-1.766-0.631-2.851c0.139-0.338,0.563-0.768,0.848-1.003
			c0.471-0.39,1.273-0.268,1.907-0.333c0.916-0.093,1.789-0.029,2.709,0.059c1.059,0.101,2.049,0.577,2.826,1.326"/>
		<path fill="none" stroke="#981B1E" stroke-width="0.5" d="M22.008,5.184c0.468-0.005,0.975-0.586,1.337-0.86
			c0.456-0.344,0.901-0.69,1.42-0.953c1.067-0.542,2.135-0.711,3.266-0.202c0.877,0.395,1.511,1.296,2.197,1.952
			c0.379,0.363,0.554,0.787,0.798,1.258c0.364,0.702,0.471,0.978,0.06,1.633c-0.925,1.473-1.532,3.888-3.829,3.662"/>
		<path fill="none" stroke="#981B1E" stroke-width="0.5" d="M16.474,8.381c0.06,0.69-1.457,1.44-1.729,2.135
			c-0.423,1.08,1.276,0.44,1.77,0.496c0.223,0.549,0.237,0.883,0.723,1.328c0.392,0.359,0.8,0.671,1.193,1.013
			c0.846,0.738,1.775,1.143,2.814,1.528c0.563,0.209,1.26,0.062,1.775,0.32c0.346,0.173,0.858,0.547,1.136,0.81
			c0.739,0.697,0.767,2.023,1.815,2.244c0.266,0.056,0.547,0.052,0.81,0.098"/>
		<path fill="none" stroke="#981B1E" stroke-width="0.5" d="M27.543,17.065c-0.366-0.946-0.837-1.691-1.689-2.264
			c-0.699-0.471-1.787-0.569-2.556-0.699c-0.426-0.072-0.903-0.015-1.301-0.174c-0.455-0.182-0.797-0.56-1.207-0.848
			c-0.803-0.561-1.403-1.322-2.265-1.849c-0.327-0.2-0.637-0.438-0.716-0.798"/>
		<path fill="none" stroke="#981B1E" stroke-width="0.5" d="M31.313,8.095C31.44,8.58,31.919,8.61,31.838,9.24
			c-0.057,0.439-0.299,0.777-0.561,1.121c-0.519,0.683-1.194,0.723-1.86,1.132c-0.358,0.22-0.717,0.399-1.101,0.574
			c-0.491,0.224-0.602,0.324-0.937,0.692c-0.489,0.536-1.446,1.075-2.08,1.298c-0.605,0.213-1.096,0.047-1.715,0.049"/>
		<path fill="none" stroke="#981B1E" stroke-width="0.5" d="M26.589,20.977c-0.262-0.619-0.232-1.732-0.048-2.386
			c0.187-0.662,0.783-1.269,1.182-1.834c0.537-0.76,1.106-1.703,1.8-2.351c0.697-0.651,1.365-1.276,1.801-2.147
			c0.229-0.457,1.509-3.234,0.561-3.21"/>
		<path fill="none" stroke="#981B1E" stroke-width="0.5" d="M31.599,8.333c0.707-0.444,1.71-0.423,2.566-0.525
			c0.229-0.027,0.885-0.352,1.073-0.207c0.351,0.27-0.132,0.856-0.286,1.041c-0.532,0.64-0.789,1.414-0.98,2.233
			c-0.112,0.479-0.106,0.776-0.404,1.192c-0.203,0.284-0.456,0.533-0.668,0.809c-1.032,1.343-1.749,3.155-3.163,4.155
			c-1.146,0.809-3.201,1.241-3.34,2.897c-0.004,0.047,0.004,0.096,0.001,0.144"/>
		<path fill="none" stroke="#981B1E" stroke-width="0.5" d="M18.239,13.295c0.044,0.856,0.256,1.682,0.334,2.482
			c0.1,1.026,0.64,1.876,1.063,2.769c0.379,0.799,1.206,1.598,1.927,2.116c0.707,0.508,1.623,1.034,2.545,0.983
			c0.406-0.023,0.736-0.206,1.135-0.346c0.281-0.098,0.54-0.208,0.869-0.179"/>
		<path fill="none" stroke="#981B1E" stroke-width="0.5" d="M32.028,14.297c0,0.79-0.001,1.555-0.144,2.289
			c-0.141,0.719-0.61,1.501-0.941,2.198c-0.346,0.728-0.919,1.568-1.683,1.821c-0.345,0.114-0.703,0.191-1.096,0.229
			c-0.484,0.047-0.901-0.224-1.336-0.096c-0.208,0.061-0.557,0.278-0.716,0.382"/>
	</g>
	<g>
		<path fill="none" stroke="#CBDB2A" stroke-width="0.5" d="M20.911,20.182c0.03,0.815-1.301,1.547-1.984,1.72
			c-1.006,0.255-2.025,0.534-3.054,0.252c1.859,1.056,6.161,1.653,7.837-0.444"/>
		<path fill="none" stroke="#CBDB2A" stroke-width="0.5" d="M29.436,20.755c0.355,0.616,1.064,0.96,1.768,0.579
			c-0.08,1.044-2.123,0.428-2.714,0.191c-0.175,0.408-0.003,0.623,0.305,0.822c-0.58,0.228-1.605,0.479-2.225,0.253
			c-0.369-0.135-1.196-0.726-1.206-1.145"/>
		<path fill="none" stroke="#CBDB2A" stroke-width="0.5" d="M24.665,21.709c0,2.273,0.141,4.554,0.254,6.741
			c0.127,2.457-0.509,4.966-0.509,7.509c0,2.212-0.254,4.344,0.127,6.489c0.39,2.2,0.764,4.169,0.764,6.623
			c0,4.445,0.164,8.51-0.255,12.844c-0.597,6.178,0.775,11.977,0.891,18.202c0.026,1.398,0.004,2.796-0.124,4.166
			c-0.128,1.373-0.712,2.382-0.639,3.842c0.167,3.335,0.053,6.832-0.128,10.179"/>
		<path fill="none" stroke="#CBDB2A" stroke-width="0.5" d="M26.319,22.854c-0.015,4.152-0.636,8.335-0.636,12.596
			c0,2.189-0.181,4.504,0.122,6.619c0.12,0.841,0.205,2.065,0.387,3.054c0.184,1.001,0.704,1.849,0.77,2.924
			c0.26,4.224-0.725,8.207-0.516,12.342c0.215,4.252,0.137,8.74,0.763,12.724c0.331,2.11,0.382,4.221,0.382,6.396
			c0,2.048-0.534,4.343-0.254,6.326c0.072,0.51,0.548,0.97,0.604,1.432c0.087,0.725-0.232,0.52-0.35,1.113
			c-0.188,0.945-0.207,2.073-0.255,3.053c-0.104,2.137,0.024,4.359-0.248,6.496c-0.017,0.129-0.098,0.359-0.134,0.502"/>
		<path fill="none" stroke="#CBDB2A" stroke-width="0.5" d="M26.828,46.521c0.97-0.188,0.639,0.485,1.174,0.859
			c0.557,0.388,1.058,0.481,1.746,0.541c1.434,0.125,2.724-0.548,4.056-0.47c0.379,3.43,1.691,7.562,4.004,10.128
			c1.104,1.225,2.086,2.445,3.121,3.778c0.545,0.702,2.164,1.261,1.925,2.175c1.943-3.616-0.669-8.593-1.623-12.109
			c-0.507-1.868-0.695-3.017-2.452-4.107c-1.162-0.721-2.742-1.298-4.065-1.562c-0.889-0.177-1.476,0.181-1.898-0.868
			c2.724,0.212,5.815,1.094,7.589-1.789c1.148-1.865,1.319-4.226,2.57-5.967c-2.38-0.153-5.158-0.216-7.207,1.028
			c-1.081,0.656-1.96,1.427-2.414,2.595c-0.426,1.094-1.015,2.61-1.202,3.716c-1.272-0.475-1.855-0.975-3.318-0.397
			c-1.18,0.466-2.325,1.244-2.131,2.703"/>
	</g>
</g>
</svg>
