<?xml version="1.0" encoding="utf-8"?>
<!-- Generator: Adobe Illustrator 17.0.2, SVG Export Plug-In . SVG Version: 6.00 Build 0)  -->
<!DOCTYPE svg PUBLIC "-//W3C//DTD SVG 1.1//EN" "http://www.w3.org/Graphics/SVG/1.1/DTD/svg11.dtd">
<svg version="1.1" id="Layer_1" xmlns="http://www.w3.org/2000/svg" xmlns:xlink="http://www.w3.org/1999/xlink" x="0px" y="0px"
	 width="62.053px" height="64.227px" viewBox="12.375 10.155 62.053 64.227" enable-background="new 12.375 10.155 62.053 64.227"
	 xml:space="preserve">
<g>
	<path fill="#E93340" d="M37.567,50.835c0,0.228-0.055,0.502-0.165,0.824c-0.274,0.786-0.788,1.399-1.543,1.833
		c-0.689,0.388-1.443,0.567-2.262,0.538c-1.343-0.048-2.374-0.647-3.093-1.773c-0.62-0.981-0.929-2.22-0.926-3.724
		c0.003-1.246,0.185-2.41,0.547-3.5c0.406-1.242,1.002-2.219,1.789-2.927c0.623-0.555,1.256-0.836,1.899-0.836
		c0.927,0,1.63,0.442,2.109,1.332c0.392,0.721,0.587,1.63,0.586,2.722c-0.001,0.493-0.116,1.11-0.346,1.852
		c-0.274,0.909-0.581,1.36-0.919,1.354c-0.382-0.006-0.671-0.275-0.867-0.804c0.109-0.082,0.262-0.217,0.459-0.405
		c0.219-0.26,0.329-0.774,0.33-1.541c0.001-0.743-0.069-1.372-0.21-1.888c-0.217-0.78-0.577-1.169-1.078-1.171
		c-0.349-0.001-0.731,0.241-1.147,0.726c-0.317,0.366-0.585,0.773-0.804,1.221c-0.537,1.132-0.807,2.538-0.81,4.227
		c-0.005,2.455,0.844,3.721,2.548,3.778c0.732,0.023,1.311-0.187,1.738-0.629c0.175-0.198,0.432-0.615,0.772-1.252
		c0.23-0.46,0.476-0.689,0.738-0.685c0.175,0.003,0.327,0.08,0.459,0.232C37.502,50.49,37.568,50.656,37.567,50.835z"/>
	<path fill="#E93340" d="M44.664,50.773c0,1.56-0.043,2.66-0.13,3.301c-0.055,0.375-0.284,0.564-0.689,0.564
		c-0.613,0.001-0.886-0.339-0.82-1.015c-0.547,0.29-1.115,0.432-1.706,0.428c-0.569-0.004-1.11-0.167-1.623-0.487
		c-0.612-0.382-0.918-0.863-0.917-1.442c0.001-0.567,0.351-1.092,1.05-1.58c0.634-0.441,1.23-0.661,1.787-0.659
		c0.464,0.002,0.929,0.003,1.393,0.004c0-0.144,0-0.288,0-0.432c0.011-1.26-0.327-1.89-1.015-1.891
		c-0.863-0.002-1.294,0.438-1.295,1.323c0,0.299-0.153,0.448-0.459,0.446c-0.186-0.001-0.38-0.096-0.581-0.285
		c-0.202-0.189-0.303-0.385-0.303-0.591c0.001-0.676,0.219-1.229,0.656-1.661c0.437-0.432,0.961-0.648,1.572-0.646
		C43.636,46.152,44.663,47.69,44.664,50.773z M43.008,51.428c0-0.242-0.164-0.363-0.492-0.364c-1.366-0.003-2.049,0.346-2.049,1.058
		c0,0.387,0.3,0.583,0.902,0.587c0.371,0.002,0.721-0.111,1.049-0.34C42.812,52.117,43.008,51.803,43.008,51.428z"/>
	<path fill="#E93340" d="M52.24,54.276c-0.415,0.348-0.742,0.527-0.983,0.534c-0.317,0.009-0.777-0.336-1.378-1.044
		c-0.427-0.495-0.848-0.998-1.264-1.51c-0.241-0.309-0.624-0.743-1.148-1.304c-0.016,0.012-0.033,0.025-0.049,0.037
		c0.001,0.531,0.001,1.062,0.001,1.593c0,0.097,0.036,0.238,0.107,0.424c0.071,0.186,0.107,0.333,0.107,0.442
		c0,0.169-0.079,0.318-0.237,0.447s-0.32,0.194-0.483,0.197c-0.284,0.004-0.519-0.097-0.705-0.3
		c-0.186-0.203-0.279-0.462-0.279-0.777c0-0.797-0.001-1.595-0.001-2.392c0-0.145,0.016-0.365,0.049-0.662
		c0.033-0.296,0.049-0.517,0.049-0.662c-0.001-1.625-0.002-3.25-0.002-4.874c-0.001-0.737-0.046-1.329-0.137-1.776
		c-0.041-0.205-0.06-0.362-0.06-0.471c0-0.229,0.125-0.435,0.376-0.616c0.218-0.169,0.436-0.254,0.654-0.254
		c0.164,0,0.341,0.07,0.532,0.208c0.191,0.139,0.287,0.292,0.287,0.461c0,0.048-0.035,0.217-0.104,0.507
		c-0.07,0.29-0.104,0.736-0.104,1.339c0,0.193-0.016,1.804-0.049,4.832c0.044-0.048,0.636-0.651,1.774-1.805
		c0.941-0.971,1.494-1.455,1.658-1.457c0.581-0.005,0.86,0.381,0.84,1.16c0,0.06,0,0.12,0,0.18c-0.471,0.305-1.08,0.787-1.825,1.445
		c-0.943,0.818-1.415,1.36-1.414,1.625c0,0.024,0.297,0.401,0.89,1.125c0.56,0.689,0.912,1.113,1.055,1.278
		c0.659,0.742,1.275,1.24,1.845,1.497C52.239,53.893,52.239,54.084,52.24,54.276z"/>
	<path fill="#E93340" d="M57.149,51.969c0.001,0.588-0.369,1.065-1.11,1.428c-0.578,0.285-1.184,0.442-1.817,0.467
		c-1.682,0.066-2.525-0.96-2.528-3.056c-0.001-0.862,0.188-1.824,0.569-2.883c0.467-1.299,1.034-1.95,1.699-1.959
		c0.6-0.009,1.247,0.274,1.941,0.839c0.694,0.566,1.042,1.156,1.043,1.781c0.002,0.777-0.319,1.406-0.962,1.889
		c-0.567,0.433-1.243,0.664-2.029,0.687c-0.153,0.004-0.399-0.089-0.737-0.283c0.045,1.132,0.352,1.689,0.92,1.669
		c0.48-0.017,0.952-0.183,1.416-0.496c0.463-0.313,0.76-0.472,0.891-0.477C56.913,51.555,57.149,51.687,57.149,51.969z
		 M55.359,48.681c-0.001-0.296-0.08-0.576-0.239-0.839c-0.159-0.263-0.369-0.393-0.631-0.387c-0.36,0.007-0.638,0.185-0.834,0.534
		c-0.163,0.301-0.244,0.655-0.244,1.06c0,0.227,0.071,0.41,0.214,0.549c0.142,0.14,0.322,0.206,0.541,0.201
		C54.962,49.777,55.36,49.404,55.359,48.681z"/>
	<path fill="#E93340" d="M24.913,63.965c-0.001,0.218-0.055,0.475-0.165,0.77c-0.274,0.721-0.786,1.247-1.537,1.565
		c-0.685,0.283-1.435,0.352-2.248,0.213c-1.333-0.23-2.355-0.945-3.068-2.096c-0.616-1.003-0.924-2.194-0.924-3.588
		c0-1.154,0.179-2.209,0.536-3.179c0.401-1.106,0.993-1.95,1.775-2.535c0.62-0.458,1.25-0.664,1.892-0.606
		c0.924,0.082,1.626,0.558,2.103,1.445c0.391,0.719,0.585,1.602,0.583,2.644c-0.001,0.469-0.116,1.048-0.346,1.73
		c-0.274,0.838-0.579,1.232-0.916,1.19c-0.381-0.048-0.668-0.335-0.863-0.857c0.109-0.065,0.261-0.176,0.457-0.334
		c0.218-0.223,0.327-0.699,0.329-1.426c0.001-0.704-0.069-1.308-0.209-1.81c-0.216-0.759-0.575-1.16-1.075-1.209
		c-0.348-0.034-0.729,0.158-1.142,0.571c-0.315,0.312-0.582,0.665-0.799,1.06c-0.533,1.001-0.799,2.278-0.8,3.854
		c-0.001,2.286,0.841,3.593,2.533,3.875c0.726,0.118,1.303-0.007,1.727-0.374c0.174-0.167,0.43-0.531,0.768-1.099
		c0.229-0.412,0.474-0.603,0.735-0.571c0.174,0.022,0.326,0.112,0.457,0.271C24.848,63.627,24.913,63.793,24.913,63.965z"/>
	<path fill="#E93340" d="M30.332,61.351c0,0.083-0.012,0.212-0.034,0.387c-0.23,0.337-0.471,0.494-0.721,0.473
		c-0.208-0.017-0.393-0.163-0.556-0.435c-0.021-0.531-0.195-0.809-0.522-0.836c-0.196-0.017-0.438,0.52-0.723,1.602
		c-0.132,0.478-0.199,1.154-0.2,2.029c-0.002,0.829,0.033,1.335,0.104,1.518c0.081,0.231,0.121,0.388,0.121,0.469
		c0,0.199-0.085,0.35-0.252,0.452c-0.168,0.103-0.354,0.141-0.559,0.116c-0.583-0.073-0.874-0.401-0.872-0.98
		c0-0.058,0.014-0.137,0.041-0.238c0.027-0.101,0.041-0.175,0.041-0.221c0.001-0.591-0.024-1.473-0.076-2.644
		c-0.052-1.171-0.078-2.045-0.077-2.624c0.001-0.521,0.296-0.754,0.884-0.702c0.349,0.031,0.588,0.162,0.719,0.395
		c0.306-0.335,0.65-0.489,1.032-0.459c0.262,0.02,0.513,0.116,0.753,0.287c0.164,0.107,0.354,0.324,0.572,0.652
		C30.224,60.921,30.332,61.174,30.332,61.351z"/>
	<path fill="#E93340" d="M36.13,66.299c-0.001,0.6-0.374,1.051-1.119,1.34c-0.581,0.227-1.188,0.316-1.822,0.268
		c-1.684-0.133-2.523-1.257-2.519-3.321c0.002-0.851,0.194-1.78,0.579-2.795c0.472-1.246,1.041-1.854,1.708-1.817
		c0.601,0.033,1.248,0.358,1.942,0.977c0.693,0.619,1.04,1.246,1.039,1.882c-0.001,0.792-0.325,1.408-0.971,1.839
		c-0.57,0.388-1.248,0.554-2.036,0.499c-0.153-0.011-0.399-0.13-0.737-0.357c0.042,1.132,0.347,1.721,0.915,1.764
		c0.481,0.035,0.954-0.081,1.42-0.351c0.465-0.27,0.764-0.404,0.895-0.397C35.895,65.855,36.131,66.011,36.13,66.299z
		 M34.346,62.807c0.001-0.299-0.079-0.587-0.237-0.865c-0.158-0.277-0.368-0.423-0.631-0.438c-0.361-0.02-0.64,0.136-0.837,0.468
		c-0.164,0.287-0.247,0.632-0.248,1.036c-0.001,0.226,0.07,0.415,0.212,0.568c0.142,0.152,0.322,0.236,0.541,0.251
		C33.945,63.879,34.345,63.537,34.346,62.807z"/>
	<path fill="#E93340" d="M42.72,64.994c0,1.56-0.044,2.66-0.132,3.3c-0.055,0.374-0.285,0.561-0.691,0.556
		c-0.614-0.007-0.888-0.352-0.822-1.027c-0.548,0.281-1.118,0.412-1.71,0.394c-0.57-0.017-1.112-0.194-1.627-0.529
		c-0.613-0.399-0.919-0.889-0.918-1.466c0.001-0.565,0.352-1.077,1.053-1.545c0.635-0.423,1.232-0.629,1.791-0.616
		c0.465,0.011,0.931,0.02,1.397,0.027c0-0.144,0-0.288,0-0.432c0.011-1.259-0.328-1.892-1.017-1.905
		c-0.865-0.017-1.298,0.412-1.298,1.295c0,0.298-0.154,0.443-0.46,0.434c-0.186-0.006-0.38-0.105-0.583-0.299
		c-0.203-0.193-0.303-0.393-0.303-0.597c0.001-0.674,0.22-1.219,0.658-1.64c0.438-0.421,0.963-0.625,1.576-0.613
		C41.691,60.371,42.72,61.909,42.72,64.994z M41.06,65.63c0-0.242-0.164-0.365-0.493-0.371c-1.37-0.026-2.054,0.302-2.055,1.014
		c0,0.386,0.301,0.59,0.903,0.607c0.372,0.01,0.723-0.096,1.052-0.319C40.862,66.316,41.06,66.005,41.06,65.63z"/>
	<path fill="#E93340" d="M47.352,61.54c0,0.325-0.449,0.567-1.347,0.714c-0.021,0.266-0.032,0.87-0.031,1.812
		c0,0.399,0.001,0.797,0.001,1.196c0,0.242,0.033,0.597,0.099,1.067c0.066,0.47,0.099,0.82,0.099,1.049
		c0,0.193-0.088,0.367-0.263,0.522c-0.175,0.154-0.351,0.233-0.526,0.236c-0.274,0.004-0.504-0.253-0.691-0.771
		c-0.143-0.398-0.214-0.784-0.214-1.159c0-1.282-0.001-2.563-0.001-3.845c-0.504-0.081-0.794-0.136-0.871-0.16
		c-0.285-0.096-0.427-0.236-0.427-0.417c0-0.048,0.011-0.103,0.033-0.163c0.285-0.447,0.602-0.671,0.953-0.673
		c0.022,0,0.055,0,0.098-0.001c0.044,0.012,0.076,0.018,0.098,0.018c0.23-0.001,0.339-0.298,0.328-0.891c0-0.441,0-0.882,0-1.324
		c-0.055-0.132-0.082-0.247-0.082-0.344c0-0.157,0.084-0.3,0.252-0.428c0.168-0.128,0.328-0.193,0.48-0.194
		c0.227-0.002,0.444,0.113,0.65,0.346c0.206,0.233,0.309,0.482,0.309,0.748c0,0.29-0.041,0.577-0.123,0.862
		c-0.082,0.285-0.118,0.579-0.106,0.88c0,0.024,0,0.048,0,0.073C46.924,60.779,47.351,61.058,47.352,61.54z"/>
	<path fill="#E93340" d="M49.978,60.974c0,0.216-0.043,0.524-0.13,0.924c-0.087,0.4-0.131,0.708-0.13,0.925
		c0.001,1.238,0.003,2.477,0.004,3.715c0,0.229,0.066,0.586,0.198,1.073c-0.165,0.285-0.348,0.431-0.547,0.441
		c-0.697,0.031-1.079-0.335-1.146-1.092c-0.111-1.406-0.166-2.465-0.167-3.177c-0.001-1.193,0.042-2.195,0.129-3.005
		c0-0.06,0-0.12,0-0.181c0-0.217,0.152-0.329,0.455-0.338c0.271-0.008,0.542,0.044,0.813,0.156
		C49.804,60.536,49.977,60.722,49.978,60.974z M50.122,58.446c0,0.264-0.081,0.483-0.245,0.657
		c-0.164,0.174-0.366,0.264-0.607,0.272c-0.285,0.009-0.55-0.092-0.796-0.303c-0.246-0.21-0.37-0.473-0.37-0.786
		c0-0.265,0.084-0.484,0.254-0.657c0.169-0.173,0.38-0.262,0.631-0.268c0.295-0.008,0.558,0.091,0.788,0.294
		C50.007,57.858,50.122,58.121,50.122,58.446z"/>
	<path fill="#E93340" d="M56.28,63.964c0.002,1.063-0.242,1.994-0.732,2.796c-0.567,0.914-1.32,1.416-2.261,1.488
		c-0.963,0.073-1.691-0.24-2.185-0.932c-0.45-0.61-0.675-1.464-0.677-2.557c-0.001-1.081,0.244-2.112,0.735-3.094
		c0.567-1.165,1.304-1.765,2.212-1.812c0.284-0.015,0.64,0.103,1.066,0.351C55.663,60.926,56.277,62.169,56.28,63.964z
		 M54.838,64.042c-0.003-1.816-0.409-2.696-1.218-2.649c-0.58,0.034-1.016,0.444-1.31,1.238c-0.218,0.598-0.326,1.268-0.325,2.01
		c0.002,1.592,0.436,2.362,1.3,2.3c0.558-0.04,0.973-0.401,1.245-1.076C54.736,65.35,54.839,64.743,54.838,64.042z"/>
	<path fill="#E93340" d="M63.152,66.488c-0.163,0.287-0.364,0.449-0.603,0.484c-0.185,0.027-0.49-0.043-0.914-0.215
		c0-0.069,0-0.138,0-0.208c-0.001-0.253,0.004-0.629,0.014-1.126c0.01-0.497,0.015-0.86,0.014-1.091
		c-0.005-2.465-0.353-3.661-1.047-3.594c-0.195,0.019-0.417,0.203-0.665,0.553c-0.768,1.074-1.15,2.323-1.147,3.738
		c0.001,0.199,0.036,0.49,0.108,0.874c0.072,0.384,0.108,0.674,0.108,0.873c0,0.164-0.07,0.306-0.212,0.428
		c-0.142,0.122-0.294,0.192-0.458,0.21c-0.654,0.074-0.983-0.339-0.985-1.233c-0.002-1.229-0.005-2.458-0.007-3.687
		c0-0.094,0.01-0.233,0.032-0.417c0.021-0.184,0.032-0.323,0.032-0.417c0-0.141-0.02-0.345-0.059-0.613
		c-0.039-0.267-0.058-0.466-0.058-0.595c-0.001-0.188,0.1-0.375,0.302-0.561c0.201-0.186,0.384-0.285,0.548-0.298
		c0.24-0.019,0.486,0.108,0.737,0.379c-0.016,0.235-0.032,0.47-0.048,0.705c0.402-0.725,0.898-1.11,1.486-1.163
		c0.381-0.035,0.785,0.067,1.21,0.302c0.425,0.235,0.736,0.512,0.932,0.834c0.448,0.823,0.673,1.937,0.675,3.354
		C63.149,64.83,63.151,65.659,63.152,66.488z"/>
	<path fill="#E93340" d="M69.751,63.799c0,0.513-0.216,1.001-0.648,1.469c-0.475,0.508-1.113,0.843-1.914,0.991
		c-0.347,0.074-0.72,0.069-1.121-0.018c-1.302-0.281-1.955-0.605-1.955-0.921c-0.001-0.501,0.341-0.799,1.025-0.903
		c0.098-0.015,0.201-0.025,0.309-0.031c0.033,0.333,0.294,0.563,0.782,0.684c0.423,0.109,0.829,0.111,1.219,0.009
		c0.314-0.078,0.471-0.223,0.471-0.433c0-0.033-0.008-0.082-0.024-0.145c-0.016-0.064-0.024-0.115-0.024-0.153
		s-0.206-0.088-0.618-0.152c-0.466-0.066-0.727-0.109-0.781-0.122c-1.237-0.562-1.858-1.413-1.86-2.499
		c-0.001-0.657,0.177-1.286,0.535-1.882c0.401-0.658,0.9-1.02,1.498-1.093c0.445-0.055,0.953,0.06,1.522,0.336
		s0.919,0.603,1.049,0.988c0.086,0.272,0.13,0.5,0.13,0.686c0,0.197-0.027,0.365-0.081,0.505c-0.065,0.175-0.13,0.35-0.195,0.525
		c-0.206,0.176-0.412,0.282-0.617,0.315c-0.109,0.018-0.29-0.022-0.544-0.121c-0.255-0.098-0.382-0.199-0.382-0.299
		c0-0.044,0.065-0.198,0.195-0.462c0.076-0.155,0.114-0.283,0.114-0.382c-0.001-0.664-0.256-0.96-0.765-0.892
		c-0.304,0.041-0.537,0.272-0.699,0.697c-0.119,0.33-0.178,0.674-0.178,1.033c0.001,0.448,0.31,0.809,0.928,1.069
		c0.564,0.169,1.132,0.335,1.706,0.499C69.443,63.274,69.751,63.504,69.751,63.799z"/>
</g>
<g>
	<path fill="none" stroke="#981B1E" stroke-width="0.25" d="M37.567,50.479c0,0.227-0.055,0.502-0.165,0.823
		c-0.274,0.786-0.788,1.398-1.543,1.832c-0.689,0.388-1.443,0.567-2.262,0.538c-1.344-0.048-2.374-0.646-3.093-1.772
		c-0.62-0.981-0.929-2.219-0.926-3.723c0.002-1.246,0.185-2.41,0.547-3.5c0.406-1.242,1.002-2.217,1.789-2.926
		c0.623-0.555,1.256-0.835,1.899-0.835c0.927,0,1.63,0.443,2.109,1.332c0.392,0.721,0.587,1.629,0.586,2.721
		c-0.001,0.492-0.116,1.11-0.346,1.851c-0.274,0.909-0.581,1.359-0.919,1.353c-0.382-0.007-0.671-0.275-0.867-0.804
		c0.109-0.082,0.262-0.217,0.459-0.405c0.219-0.26,0.329-0.773,0.33-1.54c0.001-0.742-0.069-1.372-0.21-1.887
		c-0.217-0.779-0.577-1.169-1.078-1.171c-0.349-0.002-0.731,0.241-1.147,0.725c-0.317,0.366-0.585,0.773-0.804,1.22
		c-0.537,1.131-0.807,2.537-0.81,4.226c-0.004,2.454,0.844,3.72,2.548,3.777c0.732,0.023,1.311-0.187,1.738-0.629
		c0.175-0.198,0.432-0.614,0.772-1.252c0.23-0.46,0.476-0.689,0.738-0.685c0.175,0.003,0.327,0.08,0.459,0.232
		C37.502,50.134,37.567,50.3,37.567,50.479z"/>
	<path fill="none" stroke="#981B1E" stroke-width="0.25" d="M44.664,50.416c0.001,1.559-0.043,2.659-0.13,3.299
		c-0.055,0.375-0.284,0.563-0.689,0.564c-0.613,0.001-0.886-0.338-0.82-1.015c-0.547,0.29-1.115,0.432-1.706,0.428
		c-0.569-0.004-1.11-0.167-1.623-0.487c-0.612-0.382-0.918-0.863-0.917-1.441c0.001-0.566,0.351-1.091,1.05-1.58
		c0.634-0.44,1.23-0.661,1.787-0.658c0.464,0.002,0.929,0.003,1.393,0.004c0-0.144,0-0.288,0-0.432
		c0.011-1.259-0.327-1.889-1.015-1.89c-0.863-0.002-1.294,0.438-1.295,1.322c0,0.299-0.153,0.447-0.459,0.445
		c-0.186-0.001-0.38-0.096-0.581-0.285c-0.202-0.188-0.303-0.385-0.303-0.591c0.001-0.675,0.219-1.228,0.656-1.66
		s0.961-0.648,1.572-0.646C43.636,45.798,44.663,47.335,44.664,50.416z M43.008,51.071c0-0.242-0.164-0.363-0.492-0.363
		c-1.366-0.003-2.049,0.345-2.049,1.058c0,0.386,0.3,0.582,0.902,0.586c0.371,0.002,0.721-0.111,1.049-0.34
		C42.812,51.76,43.008,51.446,43.008,51.071z"/>
	<path fill="none" stroke="#981B1E" stroke-width="0.25" d="M52.24,53.918c-0.415,0.348-0.742,0.526-0.983,0.533
		c-0.317,0.009-0.777-0.336-1.378-1.043c-0.427-0.495-0.848-0.998-1.264-1.509c-0.241-0.309-0.624-0.743-1.148-1.304
		c-0.016,0.012-0.033,0.025-0.049,0.037c0.001,0.531,0.001,1.061,0.001,1.592c0,0.097,0.036,0.238,0.107,0.424
		c0.071,0.186,0.107,0.333,0.107,0.442c0,0.169-0.079,0.318-0.237,0.447c-0.158,0.129-0.32,0.194-0.483,0.197
		c-0.284,0.004-0.519-0.097-0.705-0.3c-0.186-0.203-0.279-0.462-0.279-0.776c0-0.797-0.001-1.594-0.001-2.391
		c0-0.145,0.016-0.365,0.049-0.661c0.033-0.296,0.049-0.516,0.049-0.661c-0.001-1.624-0.002-3.248-0.002-4.872
		c0-0.736-0.046-1.328-0.137-1.775c-0.041-0.205-0.06-0.362-0.06-0.471c0-0.229,0.125-0.435,0.376-0.616
		c0.218-0.169,0.436-0.254,0.654-0.254c0.164,0,0.341,0.069,0.532,0.208c0.191,0.139,0.287,0.292,0.287,0.461
		c0,0.048-0.035,0.217-0.104,0.507s-0.104,0.736-0.104,1.338c0,0.193-0.016,1.803-0.049,4.829c0.044-0.048,0.636-0.651,1.774-1.805
		c0.941-0.971,1.494-1.455,1.658-1.456c0.581-0.005,0.86,0.381,0.84,1.159c0,0.06,0,0.12,0,0.18
		c-0.471,0.305-1.08,0.787-1.825,1.445c-0.943,0.817-1.415,1.359-1.414,1.624c0,0.024,0.297,0.401,0.89,1.125
		c0.56,0.688,0.912,1.113,1.055,1.278c0.659,0.742,1.275,1.24,1.845,1.497C52.239,53.535,52.239,53.727,52.24,53.918z"/>
	<path fill="none" stroke="#981B1E" stroke-width="0.25" d="M57.149,51.613c0.001,0.588-0.369,1.064-1.11,1.428
		c-0.578,0.285-1.184,0.442-1.817,0.466c-1.682,0.066-2.525-0.96-2.528-3.055c-0.001-0.862,0.188-1.824,0.569-2.882
		c0.467-1.299,1.034-1.95,1.699-1.959c0.6-0.009,1.247,0.273,1.941,0.838c0.694,0.565,1.042,1.156,1.043,1.78
		c0.002,0.777-0.319,1.406-0.962,1.888c-0.567,0.433-1.243,0.664-2.029,0.687c-0.153,0.004-0.399-0.089-0.737-0.283
		c0.045,1.132,0.352,1.689,0.92,1.669c0.48-0.016,0.952-0.183,1.416-0.496c0.463-0.313,0.76-0.472,0.891-0.477
		C56.914,51.199,57.149,51.33,57.149,51.613z M55.359,48.326c-0.001-0.296-0.08-0.575-0.239-0.839
		c-0.159-0.263-0.369-0.392-0.631-0.387c-0.36,0.007-0.638,0.185-0.834,0.534c-0.163,0.301-0.244,0.654-0.244,1.059
		c0,0.226,0.071,0.41,0.214,0.549c0.142,0.14,0.322,0.206,0.541,0.201C54.962,49.421,55.36,49.048,55.359,48.326z"/>
	<path fill="none" stroke="#981B1E" stroke-width="0.25" d="M24.912,63.612c-0.001,0.218-0.055,0.475-0.165,0.77
		c-0.274,0.721-0.786,1.248-1.537,1.567c-0.685,0.284-1.435,0.355-2.248,0.216c-1.334-0.228-2.355-0.941-3.069-2.092
		c-0.616-1.003-0.924-2.195-0.924-3.59c0-1.156,0.179-2.212,0.537-3.183c0.401-1.108,0.993-1.953,1.776-2.539
		c0.62-0.459,1.25-0.665,1.892-0.608c0.924,0.081,1.626,0.557,2.103,1.444c0.391,0.719,0.585,1.602,0.583,2.644
		c-0.001,0.47-0.116,1.048-0.346,1.731c-0.274,0.838-0.579,1.233-0.916,1.191c-0.381-0.048-0.668-0.334-0.863-0.857
		c0.109-0.065,0.261-0.176,0.457-0.335c0.218-0.223,0.327-0.699,0.329-1.426c0.001-0.704-0.069-1.308-0.209-1.81
		c-0.216-0.759-0.575-1.16-1.075-1.208c-0.348-0.034-0.729,0.159-1.142,0.572c-0.316,0.312-0.582,0.666-0.799,1.061
		c-0.533,1.002-0.799,2.281-0.8,3.858c-0.001,2.288,0.841,3.595,2.533,3.874c0.727,0.117,1.303-0.009,1.727-0.377
		c0.174-0.167,0.43-0.532,0.768-1.1c0.229-0.412,0.474-0.604,0.735-0.572c0.174,0.021,0.326,0.112,0.457,0.27
		C24.848,63.274,24.913,63.44,24.912,63.612z"/>
	<path fill="none" stroke="#981B1E" stroke-width="0.25" d="M30.332,60.993c0,0.083-0.012,0.212-0.034,0.387
		c-0.23,0.337-0.471,0.494-0.722,0.473c-0.208-0.017-0.393-0.162-0.556-0.434c-0.021-0.53-0.195-0.809-0.522-0.836
		c-0.196-0.016-0.438,0.52-0.723,1.603c-0.132,0.478-0.199,1.154-0.2,2.029c-0.002,0.829,0.033,1.334,0.104,1.517
		c0.081,0.231,0.121,0.388,0.121,0.469c0,0.199-0.085,0.35-0.252,0.453c-0.168,0.103-0.354,0.142-0.559,0.117
		c-0.583-0.072-0.874-0.4-0.872-0.979c0-0.058,0.014-0.137,0.041-0.238c0.027-0.101,0.041-0.175,0.041-0.221
		c0.001-0.591-0.024-1.473-0.076-2.644c-0.052-1.171-0.078-2.045-0.077-2.624c0.001-0.521,0.296-0.754,0.884-0.702
		c0.349,0.031,0.588,0.162,0.719,0.394c0.306-0.336,0.65-0.49,1.032-0.46c0.262,0.02,0.513,0.116,0.753,0.286
		c0.164,0.107,0.354,0.324,0.572,0.652C30.224,60.563,30.332,60.816,30.332,60.993z"/>
	<path fill="none" stroke="#981B1E" stroke-width="0.25" d="M36.13,65.936c-0.001,0.6-0.374,1.05-1.119,1.34
		c-0.581,0.227-1.188,0.317-1.822,0.269c-1.684-0.132-2.523-1.254-2.52-3.318c0.002-0.851,0.194-1.78,0.579-2.795
		c0.472-1.246,1.041-1.854,1.708-1.817c0.601,0.033,1.248,0.358,1.942,0.976c0.693,0.619,1.04,1.245,1.039,1.881
		c-0.001,0.791-0.325,1.408-0.971,1.839c-0.57,0.388-1.248,0.555-2.036,0.5c-0.153-0.011-0.399-0.129-0.737-0.357
		c0.042,1.131,0.347,1.721,0.915,1.762c0.481,0.035,0.954-0.082,1.42-0.352c0.465-0.27,0.764-0.404,0.895-0.397
		C35.896,65.493,36.131,65.648,36.13,65.936z M34.346,62.447c0.001-0.299-0.079-0.587-0.237-0.864
		c-0.158-0.277-0.368-0.423-0.631-0.437c-0.361-0.02-0.64,0.136-0.837,0.468c-0.164,0.287-0.247,0.632-0.248,1.036
		c0,0.226,0.07,0.415,0.212,0.567c0.142,0.152,0.322,0.236,0.541,0.25C33.945,63.519,34.345,63.176,34.346,62.447z"/>
	<path fill="none" stroke="#981B1E" stroke-width="0.25" d="M42.72,64.63c0,1.559-0.044,2.659-0.132,3.299
		c-0.055,0.374-0.285,0.56-0.691,0.556c-0.614-0.007-0.888-0.351-0.822-1.026c-0.548,0.281-1.118,0.412-1.71,0.395
		c-0.57-0.017-1.112-0.194-1.627-0.528c-0.613-0.398-0.919-0.888-0.919-1.465c0.001-0.565,0.352-1.076,1.053-1.545
		c0.635-0.422,1.232-0.629,1.791-0.616c0.465,0.011,0.931,0.02,1.397,0.026c0-0.144,0-0.288,0-0.431
		c0.011-1.258-0.328-1.891-1.017-1.904c-0.865-0.016-1.298,0.412-1.298,1.295c0,0.298-0.154,0.443-0.46,0.433
		c-0.186-0.006-0.38-0.105-0.583-0.299c-0.203-0.193-0.303-0.392-0.303-0.597c0.001-0.674,0.22-1.219,0.658-1.639
		c0.438-0.421,0.963-0.625,1.576-0.613C41.691,60.01,42.72,61.546,42.72,64.63z M41.06,65.266c0-0.242-0.164-0.365-0.493-0.371
		c-1.37-0.026-2.054,0.303-2.055,1.014c0,0.385,0.301,0.589,0.903,0.607c0.372,0.01,0.723-0.096,1.052-0.319
		C40.863,65.952,41.06,65.641,41.06,65.266z"/>
	<path fill="none" stroke="#981B1E" stroke-width="0.25" d="M47.352,61.179c0,0.325-0.449,0.566-1.347,0.713
		c-0.021,0.266-0.032,0.87-0.031,1.812c0,0.398,0,0.797,0.001,1.195c0,0.242,0.033,0.597,0.099,1.067
		c0.066,0.47,0.099,0.819,0.099,1.048c0,0.193-0.088,0.367-0.263,0.521c-0.175,0.154-0.351,0.233-0.526,0.235
		c-0.274,0.004-0.504-0.253-0.691-0.771c-0.143-0.397-0.214-0.783-0.214-1.158c0-1.281-0.001-2.562-0.001-3.843
		c-0.504-0.081-0.794-0.136-0.871-0.16c-0.285-0.096-0.427-0.236-0.427-0.417c0-0.048,0.011-0.103,0.033-0.163
		c0.285-0.447,0.602-0.671,0.953-0.672c0.022,0,0.055,0,0.098-0.001c0.044,0.012,0.076,0.018,0.098,0.018
		c0.23-0.001,0.339-0.298,0.328-0.89c0-0.441,0-0.882,0-1.323c-0.055-0.132-0.082-0.247-0.082-0.344
		c0-0.157,0.084-0.299,0.252-0.427c0.168-0.128,0.328-0.193,0.48-0.194c0.227-0.002,0.444,0.113,0.65,0.346
		c0.206,0.233,0.309,0.482,0.309,0.747c0,0.29-0.041,0.577-0.123,0.862c-0.082,0.285-0.118,0.578-0.106,0.88
		c0,0.024,0,0.048,0,0.073C46.924,60.417,47.351,60.696,47.352,61.179z"/>
	<path fill="none" stroke="#981B1E" stroke-width="0.25" d="M49.978,60.614c0,0.216-0.043,0.524-0.13,0.924
		c-0.087,0.4-0.131,0.708-0.13,0.924c0.001,1.238,0.003,2.476,0.004,3.714c0,0.229,0.066,0.586,0.198,1.072
		c-0.165,0.285-0.348,0.431-0.547,0.44c-0.697,0.031-1.079-0.336-1.146-1.092c-0.111-1.406-0.166-2.464-0.167-3.175
		c-0.001-1.193,0.042-2.194,0.129-3.004c0-0.06,0-0.12,0-0.181c0-0.217,0.152-0.329,0.455-0.337
		c0.271-0.008,0.542,0.045,0.813,0.156C49.803,60.176,49.977,60.361,49.978,60.614z M50.122,58.086c0,0.264-0.081,0.483-0.245,0.657
		c-0.164,0.174-0.366,0.264-0.607,0.271c-0.285,0.009-0.55-0.092-0.796-0.303c-0.246-0.21-0.37-0.473-0.37-0.786
		c0-0.265,0.084-0.483,0.254-0.656c0.169-0.173,0.38-0.262,0.631-0.268c0.295-0.008,0.558,0.091,0.788,0.294
		C50.007,57.499,50.122,57.762,50.122,58.086z"/>
	<path fill="none" stroke="#981B1E" stroke-width="0.25" d="M56.28,63.605c0.002,1.063-0.242,1.993-0.732,2.794
		c-0.567,0.914-1.32,1.415-2.261,1.486c-0.963,0.072-1.691-0.241-2.185-0.933c-0.45-0.61-0.675-1.464-0.677-2.556
		c-0.001-1.08,0.244-2.111,0.735-3.092c0.567-1.164,1.304-1.764,2.212-1.811c0.284-0.015,0.64,0.103,1.066,0.351
		C55.662,60.568,56.277,61.81,56.28,63.605z M54.838,63.683c-0.003-1.815-0.409-2.695-1.218-2.649
		c-0.58,0.034-1.016,0.444-1.31,1.237c-0.218,0.597-0.326,1.267-0.325,2.009c0.002,1.591,0.436,2.362,1.3,2.3
		c0.558-0.04,0.973-0.4,1.245-1.075C54.736,64.99,54.839,64.383,54.838,63.683z"/>
	<path fill="none" stroke="#981B1E" stroke-width="0.25" d="M63.152,66.137c-0.163,0.287-0.364,0.449-0.603,0.483
		c-0.185,0.027-0.49-0.044-0.915-0.217c0-0.069,0-0.138,0-0.208c-0.001-0.253,0.004-0.629,0.014-1.126
		c0.01-0.497,0.015-0.861,0.014-1.091c-0.005-2.465-0.353-3.662-1.047-3.595c-0.195,0.019-0.417,0.203-0.665,0.552
		c-0.768,1.074-1.15,2.322-1.147,3.737c0.001,0.199,0.036,0.49,0.108,0.874c0.072,0.384,0.108,0.674,0.108,0.873
		c0,0.164-0.07,0.306-0.212,0.427c-0.142,0.121-0.294,0.192-0.458,0.21c-0.655,0.074-0.983-0.34-0.985-1.234
		c-0.002-1.229-0.005-2.458-0.007-3.687c0-0.094,0.01-0.233,0.032-0.417c0.021-0.184,0.032-0.323,0.032-0.417
		c0-0.141-0.02-0.345-0.059-0.613c-0.039-0.267-0.058-0.466-0.058-0.595c0-0.188,0.1-0.375,0.302-0.561
		c0.202-0.186,0.384-0.285,0.548-0.297c0.24-0.019,0.486,0.108,0.737,0.379c-0.016,0.235-0.032,0.47-0.048,0.705
		c0.402-0.724,0.898-1.109,1.486-1.162c0.381-0.034,0.785,0.068,1.21,0.303c0.425,0.235,0.736,0.512,0.933,0.835
		c0.448,0.824,0.673,1.938,0.675,3.355C63.15,64.479,63.151,65.308,63.152,66.137z"/>
	<path fill="none" stroke="#981B1E" stroke-width="0.25" d="M69.752,63.458c0,0.513-0.216,1.002-0.648,1.469
		c-0.476,0.508-1.113,0.842-1.914,0.987c-0.347,0.074-0.72,0.068-1.122-0.02c-1.302-0.284-1.955-0.608-1.955-0.925
		c-0.001-0.501,0.341-0.799,1.025-0.902c0.098-0.015,0.201-0.025,0.309-0.03c0.033,0.333,0.294,0.564,0.782,0.685
		c0.423,0.11,0.83,0.112,1.219,0.011c0.314-0.077,0.471-0.222,0.471-0.432c0-0.033-0.008-0.082-0.024-0.145
		c-0.016-0.064-0.025-0.115-0.025-0.154c0-0.039-0.206-0.088-0.618-0.153c-0.466-0.067-0.727-0.11-0.781-0.124
		c-1.237-0.564-1.859-1.416-1.86-2.504c-0.001-0.657,0.178-1.286,0.535-1.883c0.401-0.658,0.9-1.019,1.498-1.092
		c0.445-0.054,0.953,0.061,1.522,0.338c0.569,0.277,0.919,0.604,1.049,0.991c0.086,0.272,0.13,0.501,0.13,0.687
		c0,0.197-0.027,0.366-0.081,0.506c-0.065,0.175-0.13,0.35-0.195,0.525c-0.206,0.176-0.411,0.281-0.617,0.314
		c-0.109,0.017-0.29-0.023-0.544-0.122c-0.255-0.099-0.382-0.2-0.382-0.3c0-0.044,0.065-0.199,0.195-0.462
		c0.076-0.155,0.114-0.283,0.114-0.383c-0.001-0.665-0.256-0.961-0.765-0.893c-0.304,0.041-0.537,0.272-0.699,0.697
		c-0.119,0.33-0.178,0.674-0.178,1.033c0.001,0.448,0.31,0.81,0.929,1.071c0.564,0.169,1.133,0.337,1.706,0.503
		C69.444,62.932,69.752,63.163,69.752,63.458z"/>
</g>
<g>
	<path fill="#E93340" d="M32.4,15.297c0,0.099-0.03,0.23-0.09,0.394c-0.139,0.386-0.418,0.708-0.837,0.971
		c-0.386,0.242-0.805,0.384-1.256,0.424c-0.764,0.068-1.338-0.182-1.722-0.773c-0.325-0.485-0.487-1.138-0.485-1.95
		c0.002-0.694,0.104-1.354,0.309-1.973c0.23-0.724,0.572-1.28,1.025-1.667c0.335-0.291,0.672-0.433,1.012-0.433
		c0.504,0.001,0.879,0.234,1.126,0.694c0.195,0.361,0.292,0.804,0.29,1.333c-0.001,0.262-0.045,0.564-0.131,0.91
		c-0.113,0.453-0.258,0.684-0.434,0.692c-0.137,0.006-0.235-0.059-0.293-0.194c0.039-0.027,0.102-0.073,0.187-0.14
		c0.171-0.164,0.257-0.548,0.259-1.155c0.001-0.369-0.07-0.721-0.212-1.058c-0.182-0.436-0.433-0.656-0.753-0.655
		c-0.255,0.001-0.524,0.151-0.806,0.455c-0.21,0.226-0.391,0.49-0.542,0.79c-0.335,0.691-0.504,1.547-0.507,2.554
		c-0.002,0.669,0.115,1.194,0.349,1.569c0.293,0.468,0.749,0.669,1.37,0.616c0.34-0.028,0.65-0.14,0.932-0.333
		c0.281-0.193,0.498-0.437,0.65-0.732c0.026-0.095,0.082-0.229,0.168-0.401c0.053-0.084,0.118-0.128,0.197-0.132
		C32.336,15.097,32.401,15.161,32.4,15.297z"/>
	<path fill="#E93340" d="M35.388,16.784c-0.053,0.051-0.151,0.08-0.295,0.088c-0.072,0.004-0.147-0.034-0.225-0.114
		c0.002-0.518,0.003-0.931,0.005-1.239c0.006-1.53-0.268-2.288-0.821-2.275c-0.234,0.006-0.43,0.14-0.587,0.402
		c-0.137,0.225-0.207,0.454-0.207,0.687c0,0.025-0.009,0.063-0.025,0.116c-0.017,0.053-0.025,0.091-0.025,0.116
		c-0.001,0.392-0.003,0.784-0.004,1.176c-0.001,0.104,0.015,0.253,0.047,0.447c0.032,0.194,0.048,0.34,0.047,0.438
		c-0.001,0.098-0.079,0.152-0.236,0.163c-0.111,0.008-0.204-0.035-0.279-0.129c-0.075-0.094-0.112-0.193-0.112-0.298
		c0.026-1.899,0.053-3.796,0.08-5.691c-0.013-0.037-0.019-0.074-0.019-0.111c0.001-0.111,0.066-0.166,0.197-0.166
		c0.065,0,0.162,0.042,0.289,0.124c0.127,0.083,0.191,0.152,0.191,0.207c-0.001,0.147-0.032,0.359-0.096,0.636
		c-0.063,0.277-0.095,0.486-0.096,0.628c0,0.012,0.005,0.421,0.015,1.226c0.243-0.209,0.43-0.314,0.561-0.318
		c0.209-0.005,0.461,0.047,0.755,0.154c0.569,0.204,0.851,0.767,0.848,1.69C35.393,15.422,35.39,16.102,35.388,16.784z"/>
	<path fill="#E93340" d="M38.14,13.281c0,0.024-0.004,0.074-0.01,0.15c-0.086,0.119-0.168,0.18-0.246,0.181
		c-0.053,0.001-0.098-0.028-0.137-0.086c-0.018-0.371-0.188-0.555-0.509-0.549c-0.21,0.003-0.417,0.356-0.622,1.063
		c-0.08,0.258-0.12,0.601-0.122,1.029c-0.002,0.547,0.013,0.883,0.045,1.006c0.006,0.018,0.023,0.054,0.049,0.109
		c0.026,0.055,0.039,0.098,0.039,0.128c-0.001,0.131-0.099,0.2-0.295,0.209c-0.223,0.01-0.333-0.089-0.333-0.298
		c0-0.03,0.009-0.073,0.025-0.131c0.016-0.057,0.025-0.101,0.025-0.131c0.001-0.328-0.013-0.82-0.043-1.476
		c-0.03-0.656-0.045-1.148-0.043-1.477c0-0.119,0.024-0.193,0.07-0.221c0.046-0.028,0.134-0.043,0.265-0.045
		c0.164-0.003,0.258,0.049,0.284,0.156c0.006,0.119,0.012,0.235,0.018,0.348c0.171-0.241,0.27-0.376,0.296-0.406
		c0.144-0.151,0.295-0.227,0.453-0.229c0.118-0.002,0.236,0.029,0.353,0.093c0.065,0.035,0.155,0.125,0.269,0.27
		C38.083,13.121,38.141,13.223,38.14,13.281z"/>
	<path fill="#E93340" d="M39.34,12.958c0,0.105-0.029,0.264-0.085,0.475c-0.057,0.212-0.085,0.37-0.085,0.475
		c-0.002,0.647-0.004,1.294-0.007,1.941c-0.001,0.129,0.032,0.304,0.096,0.525c-0.026,0.047-0.063,0.072-0.108,0.073
		c-0.321,0.009-0.481-0.124-0.48-0.4c0.004-1.077,0.008-2.154,0.012-3.231c0.085-0.042,0.167-0.064,0.246-0.064
		c0.079-0.001,0.16,0.019,0.245,0.059C39.284,12.85,39.34,12.9,39.34,12.958z M39.531,11.641c-0.001,0.199-0.106,0.299-0.315,0.3
		c-0.124,0.001-0.239-0.04-0.343-0.121c-0.104-0.081-0.157-0.175-0.156-0.281c0.001-0.199,0.112-0.3,0.335-0.301
		c0.131-0.001,0.243,0.037,0.338,0.113C39.484,11.428,39.531,11.524,39.531,11.641z"/>
	<path fill="#E93340" d="M42.711,15.837c-0.001,0.204-0.175,0.375-0.522,0.517c-0.289,0.112-0.567,0.17-0.836,0.173
		c-0.177,0.002-0.38-0.033-0.609-0.106c-0.125-0.045-0.324-0.165-0.598-0.359c-0.301-0.212-0.451-0.359-0.451-0.441
		c0.001-0.182,0.122-0.267,0.364-0.254c0.02,0,0.039-0.001,0.059-0.001c0.012,0.177,0.221,0.364,0.627,0.564
		c0.366,0.183,0.661,0.273,0.884,0.271c0.288-0.003,0.433-0.091,0.433-0.265c0-0.104-0.176-0.249-0.529-0.432
		c-0.484-0.246-0.814-0.443-0.991-0.593c-0.359-0.305-0.538-0.659-0.537-1.063c0.001-0.304,0.09-0.595,0.268-0.871
		c0.204-0.329,0.46-0.493,0.768-0.494c0.223-0.001,0.491,0.09,0.804,0.272c0.314,0.182,0.497,0.366,0.548,0.552
		c0.052,0.157,0.078,0.339,0.077,0.548c-0.001,0.226-0.047,0.473-0.14,0.74c-0.059,0.041-0.128,0.062-0.206,0.062
		c-0.046,0-0.118-0.015-0.216-0.047c-0.098-0.031-0.147-0.064-0.147-0.099c0,0.023,0.036-0.041,0.109-0.192
		c0.053-0.099,0.079-0.279,0.08-0.54c0.002-0.621-0.217-0.931-0.655-0.93c-0.229,0.001-0.413,0.139-0.552,0.414
		c-0.119,0.223-0.178,0.448-0.179,0.676c-0.001,0.286,0.185,0.561,0.557,0.826c0.124,0.092,0.467,0.29,1.03,0.596
		C42.524,15.561,42.711,15.721,42.711,15.837z"/>
	<path fill="#E93340" d="M44.838,13.61c-0.052,0.034-0.177,0.063-0.373,0.085c-0.216,0.022-0.341,0.042-0.374,0.059
		c-0.007,0.064-0.01,0.386-0.012,0.966c-0.001,0.453,0.004,0.757,0.017,0.914c0,0.064,0.016,0.165,0.048,0.305
		c0.032,0.14,0.048,0.247,0.048,0.323c0,0.046-0.033,0.092-0.098,0.138c-0.066,0.046-0.125,0.069-0.177,0.069
		c-0.131-0.001-0.236-0.12-0.314-0.358c-0.052-0.174-0.078-0.34-0.077-0.496c0.002-0.818,0.004-1.421,0.005-1.809
		c-0.038-0.029-0.185-0.03-0.441-0.001c-0.204,0.023-0.306-0.044-0.306-0.2c0.001-0.22,0.266-0.322,0.797-0.303
		c0.044-0.525,0.088-1.049,0.132-1.574c0-0.017-0.008-0.045-0.024-0.083c-0.016-0.038-0.024-0.065-0.024-0.083
		c0-0.035,0.026-0.068,0.079-0.1c0.052-0.032,0.115-0.045,0.187-0.039c0.229,0.018,0.343,0.12,0.343,0.306
		c0,0.145-0.024,0.363-0.07,0.652c-0.047,0.29-0.07,0.504-0.07,0.643c0,0.07,0.006,0.137,0.019,0.2
		c0.18-0.008,0.36-0.016,0.54-0.023c0.183,0.001,0.275,0.066,0.275,0.193C44.966,13.486,44.924,13.558,44.838,13.61z"/>
	<path fill="#E93340" d="M46.166,12.959c0,0.105-0.029,0.262-0.085,0.471c-0.056,0.209-0.084,0.366-0.084,0.471
		c-0.001,0.643-0.003,1.286-0.004,1.93c0,0.128,0.032,0.303,0.097,0.526c-0.026,0.046-0.062,0.069-0.108,0.068
		c-0.321-0.006-0.481-0.145-0.481-0.419c0.002-1.067,0.004-2.133,0.007-3.2c0.085-0.04,0.167-0.06,0.246-0.059
		c0.079,0.001,0.16,0.022,0.246,0.063C46.111,12.851,46.166,12.901,46.166,12.959z M46.355,11.65c0,0.198-0.105,0.296-0.315,0.295
		c-0.124-0.001-0.239-0.042-0.343-0.124c-0.104-0.082-0.157-0.175-0.157-0.28c0.001-0.198,0.112-0.296,0.335-0.295
		c0.131,0.001,0.244,0.039,0.338,0.115C46.308,11.437,46.356,11.534,46.355,11.65z"/>
	<path fill="#E93340" d="M49.952,16.547c-0.037,0.063-0.09,0.094-0.158,0.091s-0.179-0.05-0.333-0.139c0-0.024,0-0.047,0-0.071
		c0-0.053,0-0.133,0-0.24c0-0.107,0-0.183,0-0.231c0.003-1.965-0.266-2.953-0.807-2.962c-0.17-0.003-0.352,0.106-0.548,0.325
		c-0.496,0.543-0.745,1.231-0.747,2.067c0,0.111,0.018,0.274,0.053,0.488c0.036,0.214,0.053,0.377,0.053,0.488
		c0,0.088-0.067,0.13-0.2,0.126c-0.253-0.007-0.38-0.194-0.379-0.562c0.001-0.663,0.002-1.325,0.004-1.988
		c0-0.053,0.003-0.128,0.01-0.227c0.007-0.099,0.01-0.175,0.01-0.227c0-0.076-0.011-0.187-0.034-0.333
		c-0.023-0.146-0.034-0.254-0.034-0.325c0-0.047,0.041-0.1,0.123-0.16c0.082-0.06,0.146-0.09,0.192-0.09
		c0.085,0.001,0.163,0.043,0.235,0.126c-0.02,0.38-0.031,0.602-0.031,0.666c0,0.088,0.003,0.173,0.009,0.254
		c0.059-0.016,0.138-0.112,0.236-0.286c0.125-0.22,0.23-0.371,0.315-0.452c0.157-0.162,0.337-0.241,0.541-0.238
		c0.079,0.001,0.196,0.029,0.353,0.085c0.353,0.124,0.605,0.324,0.755,0.6c0.255,0.474,0.382,1.098,0.38,1.87
		C49.953,15.65,49.953,16.098,49.952,16.547z"/>
	<path fill="#E93340" d="M53.496,16.975c0,0.086-0.072,0.123-0.216,0.113c-0.157-0.012-0.252-0.079-0.284-0.203
		c-0.007-0.019-0.01-0.138-0.009-0.357c0-0.061-0.009-0.11-0.029-0.148c-0.367,0.226-0.763,0.324-1.188,0.299
		c-0.294-0.018-0.579-0.109-0.854-0.273c-0.314-0.184-0.471-0.399-0.47-0.649c0-0.244,0.187-0.474,0.561-0.692
		c0.341-0.201,0.655-0.297,0.943-0.284c0.324,0.014,0.648,0.029,0.972,0.045c0.039-0.035,0.059-0.098,0.059-0.189
		c0.001-0.408-0.035-0.717-0.107-0.927c-0.117-0.351-0.349-0.531-0.696-0.542c-0.249-0.007-0.478,0.131-0.688,0.413
		c-0.19,0.258-0.286,0.507-0.286,0.746c0,0.012,0,0.03,0,0.054c0,0.024,0,0.039,0,0.045c0,0.048-0.026,0.071-0.079,0.069
		c-0.065-0.003-0.137-0.041-0.216-0.116c-0.079-0.075-0.118-0.138-0.118-0.192c0-0.167,0.056-0.376,0.168-0.627
		c0.112-0.251,0.233-0.441,0.364-0.569c0.164-0.158,0.367-0.234,0.609-0.228c0.373,0.009,0.716,0.127,1.03,0.357
		c0.333,0.248,0.503,0.543,0.509,0.879C53.479,14.991,53.487,15.983,53.496,16.975z M52.978,15.486c0-0.243-0.202-0.376-0.608-0.396
		c-0.321-0.015-0.602,0.023-0.844,0.114c-0.308,0.118-0.462,0.309-0.462,0.572c0,0.162,0.081,0.291,0.245,0.39
		c0.137,0.085,0.301,0.133,0.491,0.144c0.281,0.016,0.548-0.053,0.8-0.208C52.851,15.948,52.977,15.742,52.978,15.486z"/>
	<path fill="#E93340" d="M54.24,10.469c0-0.074,0.026-0.145,0.079-0.213c0.052-0.068,0.167-0.102,0.344-0.101
		c0.118,0,0.223,0.036,0.314,0.108c0.091,0.072,0.153,0.192,0.186,0.361c0.045,0.262,0.063,0.489,0.053,0.679
		c-0.01,0.19-0.078,0.384-0.202,0.581c-0.112,0.178-0.233,0.32-0.364,0.424c-0.131,0.105-0.262,0.155-0.393,0.152
		c-0.105-0.003-0.164-0.046-0.177-0.13c-0.013-0.084,0.026-0.161,0.118-0.233c0.111-0.09,0.227-0.174,0.349-0.252
		c0.121-0.077,0.215-0.191,0.28-0.339c0.053-0.123,0.053-0.255,0.001-0.396c-0.052-0.141-0.134-0.245-0.245-0.315
		c-0.111-0.069-0.196-0.124-0.255-0.165C54.269,10.591,54.24,10.537,54.24,10.469z"/>
	<path fill="#E93340" d="M58.741,16.602c-0.001,0.23-0.174,0.406-0.52,0.526c-0.288,0.094-0.565,0.127-0.833,0.1
		c-0.176-0.018-0.379-0.08-0.607-0.184c-0.124-0.063-0.323-0.216-0.597-0.456c-0.301-0.26-0.451-0.433-0.45-0.521
		c0-0.196,0.121-0.276,0.363-0.239c0.02,0.002,0.039,0.003,0.059,0.004c0.013,0.193,0.221,0.415,0.626,0.675
		c0.365,0.238,0.659,0.37,0.881,0.391c0.287,0.028,0.431-0.055,0.431-0.25c0-0.116-0.176-0.297-0.528-0.533
		c-0.483-0.318-0.813-0.562-0.989-0.74c-0.359-0.363-0.538-0.758-0.537-1.194c0.001-0.329,0.089-0.637,0.266-0.927
		c0.203-0.346,0.459-0.516,0.766-0.505c0.222,0.008,0.49,0.119,0.804,0.336c0.313,0.217,0.496,0.434,0.548,0.645
		c0.052,0.179,0.078,0.386,0.077,0.62c-0.001,0.254-0.047,0.529-0.139,0.821c-0.059,0.041-0.127,0.059-0.206,0.053
		c-0.046-0.003-0.118-0.027-0.216-0.07c-0.098-0.043-0.147-0.084-0.147-0.122c0,0.026,0.036-0.042,0.108-0.205
		c0.052-0.106,0.079-0.305,0.08-0.596c0.002-0.693-0.217-1.05-0.655-1.068c-0.229-0.01-0.412,0.133-0.55,0.426
		c-0.118,0.237-0.177,0.479-0.178,0.727c-0.001,0.312,0.185,0.625,0.557,0.946c0.124,0.112,0.466,0.357,1.028,0.75
		C58.556,16.272,58.742,16.471,58.741,16.602z"/>
</g>
<path fill="#E93340" d="M70.667,64.73c0,0,4.29,3.196-1.184,4.857c0,0-17.606,8.181-57.109,0.511c0,0,31.026,9.376,58.588,0.383
	C70.963,70.482,78.953,67.542,70.667,64.73z"/>
<path fill="#E93340" d="M31.295,35.362c0,0-1.905,1.419,0.526,2.157c0,0,7.817,3.633,25.357,0.227c0,0-13.776,4.163-26.014,0.17
	C31.164,37.917,27.617,36.611,31.295,35.362z"/>
<g>
	<path fill="#E93340" d="M44.631,35.358c0.405,0.212,1.067,0.202,1.499,0.358c0.842,0.304,1.673,0.83,2.553,1.089
		c1.103,0.325,2.897,0.018,3.59-0.926c0.627-0.854,0.421-2.983,0.204-3.869c-0.159-0.649-0.322-1.234-0.044-1.878
		c0.304-0.704,0.635-0.797,0.534-1.642c-0.177-1.493-0.493-2.431-1.634-3.263c-0.495-0.361-1.323-0.972-1.616-1.532
		c-0.471-0.9-0.296-2.159-0.887-3.042c-0.916-1.368-2.466-0.163-3.684-0.371c-0.633-0.109-0.845-0.509-1.342-0.931
		c-0.662-0.564-0.967-0.384-1.759-0.022c-1.128,0.516-2.354,1.237-3.234,1.713c-0.145,0.079-0.129,0.284-0.271,0.379
		c-0.134,0.089-0.28-0.041-0.415,0.021c-0.348,0.16-0.549,0.165-0.863,0.521c-0.487,0.554-0.983,1.498-0.99,2.247
		c-1.201-0.049-2.537,1.466-2.522,2.641c0.014,1.12,1.192,2.335,1.793,3.239c0.505,0.76,0.077,0.673-0.233,1.396
		c-0.245,0.569,0.012,1.209,0.323,1.688c0.475,0.731,2.104,2.532,2.905,2.723c0.367,0.088,1.111-0.008,1.553,0.004
		c0.477,0.013,0.928-0.147,1.39-0.208c0.599-0.078,1.133,0.16,1.706,0.155c0.522-0.005,0.821-0.555,1.341-0.492"/>
	<path fill="none" stroke="#981B1E" stroke-width="0.25" d="M39.352,25.89c-1.314,0.896,0.903,4.15,1.913,4.595
		c0.401,0.176,0.708,0.235,1.082,0.465c0.395,0.243,0.698,0.539,1.096,0.763c0.73,0.411,1.743,0.527,2.467-0.092"/>
	<path fill="none" stroke="#981B1E" stroke-width="0.25" d="M43.585,26.303c-0.046,0.109-0.141,0.126-0.15,0.263
		c-0.811,0.139-0.409-0.868-0.007-1.124c0.979,0.396,1.193,1.311,0.621,2.152c-0.557,0.818-1.628,0.247-1.844-0.631
		c-0.146-0.591,0.214-1.909,0.783-2.209c0.519-0.273,1.837,0.763,1.423,1.446"/>
	<path fill="none" stroke="#981B1E" stroke-width="0.25" d="M42.191,24.702c0.945-1.117,3.34-0.917,4.326-0.017
		c1.041,0.951-0.106,2.327-1.07,2.968c-0.742,0.492-2.065,0.786-2.906,0.313c-0.949-0.534-1.656-1.828-1.072-2.746
		c0.186-0.292,0.418-0.679,0.773-0.672"/>
	<path fill="none" stroke="#981B1E" stroke-width="0.25" d="M43.43,28.317c0.658,0.668,2.435,0.513,2.84-0.362"/>
	<path fill="none" stroke="#981B1E" stroke-width="0.25" d="M44.876,28.007c0.949,0.236,2.312-0.501,2.793-1.343
		c0.732-1.28-0.561-2.132-1.503-2.605c-1.101-0.552-1.748-0.38-2.94-0.264c-1.142,0.111-2.124-1.098-2.636,0.648
		c-0.602,2.052,0.571,4.406,2.995,4.13"/>
	<path fill="none" stroke="#981B1E" stroke-width="0.25" d="M41.83,24.444c-1.549,0.247-1.024,1.862-0.258,2.633"/>
	<path fill="none" stroke="#981B1E" stroke-width="0.25" d="M40.849,23.567c-1.173,0.808-1.969,1.061-1.391,2.633
		c0.409,1.114,1.063,2.073,1.959,2.892c0.785,0.716,2.029,1.137,2.996,1.55c1.046,0.447,2.42,0.26,3.199-0.518
		c0.265-0.265,0.438-0.467,0.516-0.826"/>
	<path fill="none" stroke="#981B1E" stroke-width="0.25" d="M41.985,28.42c1.397,1.397,2.945,1.836,4.855,1.476
		c1.902-0.358,2.145-2.126,0.98-3.386"/>
	<path fill="none" stroke="#981B1E" stroke-width="0.25" d="M45.703,23.773c-0.5-0.438-0.568-1.198-1.188-1.704
		c-0.51-0.416-1.085-0.72-1.784-0.671c-1.32,0.092-2.656,1.41-2.708,2.685"/>
	<path fill="none" stroke="#981B1E" stroke-width="0.25" d="M47.458,24.806c0.946,0.319,2.304,1.178,2.622,2.229
		c0.252,0.83,0.763,2.26,0.258,3.026c-1.068,1.62-4.466,2.334-5.72,0.683"/>
	<path fill="none" stroke="#981B1E" stroke-width="0.25" d="M40.487,22.689c-0.58-0.097-1.451-0.055-1.965,0.209
		c-0.695,0.358-0.635,1.005-0.542,1.747c0.193,1.55,0.807,2.765,1.577,4.033"/>
	<path fill="none" stroke="#981B1E" stroke-width="0.25" d="M47.613,24.651c-0.09-0.65-0.498-2.064-0.872-2.53
		c-0.493-0.614-1.728-0.461-2.329-0.155"/>
	<path fill="none" stroke="#981B1E" stroke-width="0.25" d="M50.143,26.871c0.027-1.269-0.336-2.497-0.387-3.767
		c-0.041-1.018-0.59-2.886-1.512-3.427c-1.151-0.676-1.871,0.357-3.006,0.533c-0.459,0.071-1.044-0.166-1.609-0.041
		c-0.62,0.137-1.091,0.53-1.748,0.531c-0.95,0.002-1.92-0.074-2.849-0.086c0.086,0.663-0.249,0.736-0.766,0.388
		c-1.816,0.996-2.835,3.858-1.6,5.61"/>
	<path fill="none" stroke="#981B1E" stroke-width="0.25" d="M37.906,23.928c-0.732,0.595-1.338,1.908-1.265,2.84
		c0.039,0.496,0.168,1.051,0.336,1.497c0.246,0.652,0.565,0.579,1.022,1.043c0.398,0.404,0.672,1.01,1.146,1.435
		c0.556,0.499,1.072,0.919,1.801,1.06c1.143,0.222,2.047,0.471,3.12,1.047c1.221,0.655,2.295,1.285,3.688,0.693
		c1.041-0.443,2.686-1.939,2.441-3.213"/>
	<path fill="none" stroke="#981B1E" stroke-width="0.25" d="M49.885,24.135c0.745,0.694,2.804,1.031,3.017,1.96
		c0.132,0.575-0.033,1.186,0.147,1.798c0.159,0.543,0.526,1.093,0.272,1.664c-0.233,0.522-0.967,0.857-1.372,1.187
		c-0.503,0.41-0.918,0.859-1.393,1.292c-0.427,0.389-0.914,0.621-1.342,0.927c-0.557,0.398-0.826,1.1-1.463,1.494
		c-0.426,0.264-2.017,0.958-2.358,0.486c-1.48,0.979-3.789-0.403-4.905-1.409c-1.193-1.075-2.83-2.516-2.478-4.234"/>
	<path fill="none" stroke="#981B1E" stroke-width="0.25" d="M39.145,32.293c-0.671-0.066-1.009,0.036-1.603-0.362
		c-0.477-0.319-0.823-0.824-1.288-1.164c-0.881-0.643-1.675-1.338-2.255-2.307c-0.696-1.161-0.821-1.643-0.212-2.868
		c0.521-1.048,1.562-1.093,2.467-1.664"/>
	<path fill="none" stroke="#981B1E" stroke-width="0.25" d="M39.868,20.52c0.725-0.816,1.605-0.837,2.529-1.39
		c0.702-0.42,1.45-1.481,1.441,0.105c0.53-0.171,1.135,0.426,1.246,0.923"/>
	<path fill="none" stroke="#981B1E" stroke-width="0.25" d="M52.26,30.537c0.431,0.86,0.269,2.296,0.302,3.214
		c0.019,0.512,0.354,0.988,0.271,1.485c-0.046,0.276-0.675,1.268-0.932,1.451c-0.968,0.69-2.548,0.178-3.617-0.034
		c-1.143-0.227-2.09-0.357-3.098-0.879c-0.27-0.14-0.535-0.266-0.775-0.487"/>
	<path fill="none" stroke="#981B1E" stroke-width="0.25" d="M44.205,35.391c-0.246,0.611-0.727,0.559-1.189,0.365
		c-0.877-0.369-0.687-0.353-1.766-0.023c-1.366,0.418-2.852,0.903-3.787-0.497c-0.362-0.543-0.389-0.735-0.957-1.111
		c-0.382-0.253-0.857-0.533-1.094-0.991c-0.37-0.714-0.226-2.333,0.788-2.441"/>
	<path fill="none" stroke="#C1272D" d="M50.612,33.742c0.054,0.054,0.109,0.109,0.163,0.163"/>
</g>
<path fill="none" stroke="#981B1E" stroke-width="0.25" d="M70.667,64.502c0,0,4.29,3.196-1.184,4.857
	c0,0-17.606,8.181-57.109,0.511c0,0,31.026,9.376,58.588,0.383C70.963,70.254,78.953,67.314,70.667,64.502z"/>
<path fill="none" stroke="#981B1E" stroke-width="0.25" d="M31.295,35.134c0,0-1.905,1.419,0.526,2.157
	c0,0,7.817,3.633,25.357,0.227c0,0-13.776,4.163-26.014,0.17C31.164,37.688,27.617,36.383,31.295,35.134z"/>
</svg>
